<svg width="61" height="28" viewBox="0 0 61 28" fill="none" xmlns="http://www.w3.org/2000/svg">
<path d="M7.712 21.456L17.36 6.264V1.8H0.44V7.344H9.908L0.26 22.536V27H17.54V21.456H7.712ZM31.6978 9V18.828C31.6978 21.384 30.3298 22.536 28.3498 22.536C26.6218 22.536 25.2178 21.492 25.2178 19.26V9H19.8178V20.052C19.8178 24.912 22.9138 27.504 26.5498 27.504C28.9258 27.504 30.7258 26.64 31.6978 25.308V27H37.0978V9H31.6978ZM46.4581 12.204V9H41.0581V27H46.4581V18.864C46.4581 15.3 49.6261 14.4 51.8581 14.76V8.64C49.5901 8.64 47.1781 9.792 46.4581 12.204Z" fill="#9272C2"/>
<path d="M57.0823 7.416C58.8463 7.416 60.3223 5.94 60.3223 4.176C60.3223 2.412 58.8463 0.935999 57.0823 0.935999C55.3183 0.935999 53.8423 2.412 53.8423 4.176C53.8423 5.94 55.3183 7.416 57.0823 7.416ZM54.3823 27H59.7823V9H54.3823V27Z" fill="#EEC5CD"/>
</svg>
