<svg width="31" height="40" viewBox="0 0 31 40" fill="none" xmlns="http://www.w3.org/2000/svg">
<path d="M15.5 34.7825C16.6414 34.7825 17.5667 34.0038 17.5667 33.0433C17.5667 32.0828 16.6414 31.3042 15.5 31.3042C14.3586 31.3042 13.4333 32.0828 13.4333 33.0433C13.4333 34.0038 14.3586 34.7825 15.5 34.7825Z" fill="#9272C2"/>
<path d="M12.0973 15.9068L7.96393 12.4286C7.55989 12.0886 6.90683 12.0886 6.50279 12.4286C6.09876 12.7686 6.09876 13.3181 6.50279 13.6581L9.90556 16.5216L6.50279 19.3851C6.09876 19.7251 6.09876 20.2747 6.50279 20.6147C6.70429 20.7842 6.96883 20.8695 7.23336 20.8695C7.49789 20.8695 7.76243 20.7842 7.96393 20.6147L12.0973 17.1364C12.5013 16.7964 12.5013 16.2468 12.0973 15.9068Z" fill="#9272C2"/>
<path d="M23.7667 19.1304H15.5C14.9296 19.1304 14.4667 19.5199 14.4667 19.9999C14.4667 20.4799 14.9296 20.8695 15.5 20.8695H23.7667C24.3371 20.8695 24.8 20.4799 24.8 19.9999C24.8 19.5199 24.3371 19.1304 23.7667 19.1304Z" fill="#9272C2"/>
<path d="M23.7667 13.9131H17.5667C16.9963 13.9131 16.5333 14.3027 16.5333 14.7827C16.5333 15.2627 16.9963 15.6522 17.5667 15.6522H23.7667C24.3371 15.6522 24.8 15.2627 24.8 14.7827C24.8 14.3027 24.3371 13.9131 23.7667 13.9131Z" fill="#9272C2"/>
<path d="M23.7667 24.3479H7.23341C6.66301 24.3479 6.20007 24.7375 6.20007 25.2175C6.20007 25.6975 6.66301 26.087 7.23341 26.087H23.7667C24.3371 26.087 24.8001 25.6975 24.8001 25.2175C24.8001 24.7375 24.3371 24.3479 23.7667 24.3479Z" fill="#9272C2"/>
<path d="M25.8292 0C25.638 0 5.16667 0 5.16667 0C5.16667 0 5.16667 0 5.16563 0C3.78613 0 2.4893 0.452174 1.51383 1.27304C0.538367 2.09391 0 3.18696 0 4.34783V6.08522C0 6.08609 0 6.08609 0 6.08696C0 6.08783 0 6.08783 0 6.0887V35.6522C0 38.0496 2.31777 40 5.16667 40H25.8333C28.6822 40 31 38.0496 31 35.6522V4.34783C31 1.95043 28.6822 0 25.8292 0ZM2.06667 4.34783C2.06667 3.6513 2.38907 2.99565 2.97497 2.50348C3.55983 2.0113 4.33793 1.73913 5.16563 1.73913H15.499C22.3748 1.73913 24.8579 1.73913 25.8323 1.67217V1.73913C27.5414 1.73913 28.9323 2.90956 28.9323 4.34783V5.21739H2.06667V4.34783ZM28.9333 35.6522C28.9333 37.0904 27.5425 38.2609 25.8333 38.2609H5.16667C3.45753 38.2609 2.06667 37.0904 2.06667 35.6522V6.95652H28.9333V35.6522Z" fill="#9272C2"/>
</svg>
