<svg width="32" height="32" viewBox="0 0 32 32" fill="none" xmlns="http://www.w3.org/2000/svg">
<path d="M16 30.7598C24.1521 30.7598 30.7606 24.1512 30.7606 15.9992C30.7606 7.84708 24.1521 1.23853 16 1.23853C7.84794 1.23853 1.23938 7.84708 1.23938 15.9992C1.23938 24.1512 7.84794 30.7598 16 30.7598Z" fill="#9272C2"/>
<path d="M16 32C7.17831 32 0 24.8229 0 16C0 7.17831 7.17831 0 16 0C24.8229 0 32 7.17831 32 16C32 24.8229 24.8229 32 16 32ZM16 2.47869C8.54406 2.47869 2.47869 8.54406 2.47869 16C2.47869 23.4559 8.54406 29.5213 16 29.5213C23.4559 29.5213 29.5213 23.4547 29.5213 16C29.5213 8.54406 23.4559 2.47869 16 2.47869Z" fill="#9272C2"/>
<path d="M16 23.3246C15.3159 23.3246 14.7606 22.7706 14.7606 22.0853V9.69177C14.7606 9.00764 15.3159 8.45239 16 8.45239C16.6841 8.45239 17.2394 9.00764 17.2394 9.69177V22.0853C17.2394 22.7706 16.6841 23.3246 16 23.3246Z" fill="white"/>
<path d="M22.1967 17.1277H9.80322C9.11909 17.1277 8.56384 16.5724 8.56384 15.8883C8.56384 15.2042 9.11909 14.6489 9.80322 14.6489H22.1967C22.8821 14.6489 23.4361 15.2042 23.4361 15.8883C23.4361 16.5724 22.8821 17.1277 22.1967 17.1277Z" fill="white"/>
</svg>
