<svg width="40" height="40" viewBox="0 0 40 40" fill="none" xmlns="http://www.w3.org/2000/svg">
<path d="M0.669938 33.9999H16.7484V32.6665H1.33988V6.66664H30.1472V5.33331H1.33988V1.33333H31.4871V10.6666H30.1472V7.99997H28.8073V19.9999H30.1472V15.9999H31.4871V19.9999H32.8269V0.666664C32.8269 0.579116 32.8096 0.492424 32.776 0.41154C32.7423 0.330655 32.6929 0.257162 32.6307 0.195256C32.5685 0.13335 32.4947 0.0842438 32.4134 0.0507416C32.3321 0.0172395 32.245 -2.51685e-06 32.157 2.75561e-10H0.669938C0.581959 -2.51685e-06 0.494842 0.0172395 0.413561 0.0507416C0.332279 0.0842438 0.258425 0.13335 0.196215 0.195256C0.134005 0.257162 0.0846574 0.330655 0.0509908 0.41154C0.0173242 0.492424 -2.5292e-06 0.579116 2.76914e-10 0.666664V33.3332C-2.5292e-06 33.4208 0.0173242 33.5074 0.0509908 33.5883C0.0846574 33.6692 0.134005 33.7427 0.196215 33.8046C0.258425 33.8665 0.332279 33.9156 0.413561 33.9491C0.494842 33.9826 0.581959 33.9999 0.669938 33.9999ZM30.1472 14.6666V12H31.4871V14.6666H30.1472Z" fill="#9272C2"/>
<path d="M20.768 13.3333C20.856 13.3333 20.9431 13.3161 21.0244 13.2826C21.1056 13.2491 21.1795 13.2 21.2417 13.1381C21.3039 13.0762 21.3533 13.0027 21.3869 12.9218C21.4206 12.8409 21.4379 12.7542 21.4379 12.6666V8.66666C21.4379 8.57912 21.4206 8.49242 21.3869 8.41154C21.3533 8.33066 21.3039 8.25716 21.2417 8.19526C21.1795 8.13335 21.1056 8.08424 21.0244 8.05074C20.9431 8.01724 20.856 8 20.768 8H12.0588C11.9708 8 11.8837 8.01724 11.8024 8.05074C11.7211 8.08424 11.6473 8.13335 11.5851 8.19526C11.5229 8.25716 11.4735 8.33066 11.4398 8.41154C11.4062 8.49242 11.3889 8.57912 11.3889 8.66666V12.6666C11.3889 12.7542 11.4062 12.8409 11.4398 12.9218C11.4735 13.0027 11.5229 13.0762 11.5851 13.1381C11.6473 13.2 11.7211 13.2491 11.8024 13.2826C11.8837 13.3161 11.9708 13.3333 12.0588 13.3333H20.768ZM12.7287 9.33333H20.098V12H12.7287V9.33333Z" fill="#9272C2"/>
<path d="M12.0589 15.3332C12.0589 15.2456 12.0415 15.1589 12.0079 15.078C11.9742 14.9972 11.9249 14.9237 11.8627 14.8618C11.8004 14.7999 11.7266 14.7507 11.6453 14.7172C11.564 14.6837 11.4769 14.6665 11.3889 14.6665H3.34969C3.26171 14.6665 3.17459 14.6837 3.09331 14.7172C3.01203 14.7507 2.93817 14.7999 2.87596 14.8618C2.81375 14.9237 2.76441 14.9972 2.73074 15.078C2.69707 15.1589 2.67975 15.2456 2.67975 15.3332V20.6665C2.67975 20.754 2.69707 20.8407 2.73074 20.9216C2.76441 21.0025 2.81375 21.076 2.87596 21.1379C2.93817 21.1998 3.01203 21.2489 3.09331 21.2824C3.17459 21.3159 3.26171 21.3331 3.34969 21.3331H11.3889C11.4769 21.3331 11.564 21.3159 11.6453 21.2824C11.7266 21.2489 11.8004 21.1998 11.8627 21.1379C11.9249 21.076 11.9742 21.0025 12.0079 20.9216C12.0415 20.8407 12.0589 20.754 12.0589 20.6665V15.3332ZM10.719 19.9998H4.01962V15.9998H10.719V19.9998Z" fill="#9272C2"/>
<path d="M20.0981 14.6665H27.4674V15.9998H20.0981V14.6665Z" fill="#9272C2"/>
<path d="M16.0785 14.6665H18.7582V15.9998H16.0785V14.6665Z" fill="#9272C2"/>
<path d="M13.3987 17.3333H27.4674V18.6666H13.3987V17.3333Z" fill="#9272C2"/>
<path d="M13.3987 19.9998H22.1079V21.3331H13.3987V19.9998Z" fill="#9272C2"/>
<path d="M18.7582 23.3333H20.0981V24.6666H18.7582V23.3333Z" fill="#9272C2"/>
<path d="M14.7386 23.3333H17.4184V24.6666H14.7386V23.3333Z" fill="#9272C2"/>
<path d="M13.3987 26H18.0882V27.3333H13.3987V26Z" fill="#9272C2"/>
<path d="M22.7778 29.3329V31.9996C22.7778 32.0871 22.7952 32.1738 22.8288 32.2547C22.8625 32.3356 22.9118 32.4091 22.974 32.471C23.0363 32.5329 23.1101 32.582 23.1914 32.6155C23.2727 32.649 23.3598 32.6662 23.4478 32.6662H23.9552L23.5964 33.0232C23.5342 33.0851 23.4848 33.1586 23.4512 33.2395C23.4175 33.3204 23.4002 33.4071 23.4002 33.4946C23.4002 33.5822 23.4175 33.6689 23.4512 33.7498C23.4848 33.8306 23.5342 33.9041 23.5964 33.966L25.4913 35.8516C25.5535 35.9136 25.6273 35.9627 25.7086 35.9962C25.7899 36.0297 25.877 36.0469 25.965 36.0469C26.053 36.0469 26.1401 36.0297 26.2214 35.9962C26.3027 35.9627 26.3765 35.9136 26.4387 35.8516L26.7975 35.4946V35.9996C26.7975 36.0871 26.8148 36.1738 26.8484 36.2547C26.8821 36.3356 26.9315 36.4091 26.9937 36.471C27.0559 36.5329 27.1297 36.582 27.211 36.6155C27.2923 36.649 27.3794 36.6662 27.4674 36.6662H30.1471C30.2351 36.6662 30.3222 36.649 30.4035 36.6155C30.4848 36.582 30.5587 36.5329 30.6209 36.471C30.6831 36.4091 30.7324 36.3356 30.7661 36.2547C30.7998 36.1738 30.8171 36.0871 30.8171 35.9996V35.4946L31.1758 35.8516C31.3015 35.9767 31.4719 36.0469 31.6496 36.0469C31.8272 36.0469 31.9976 35.9767 32.1233 35.8516L34.0181 33.966C34.0804 33.9041 34.1297 33.8306 34.1634 33.7498C34.197 33.6689 34.2144 33.5822 34.2144 33.4946C34.2144 33.4071 34.197 33.3204 34.1634 33.2395C34.1297 33.1586 34.0804 33.0851 34.0181 33.0232L33.6594 32.6662H34.1668C34.2547 32.6662 34.3419 32.649 34.4231 32.6155C34.5044 32.582 34.5783 32.5329 34.6405 32.471C34.7027 32.4091 34.752 32.3356 34.7857 32.2547C34.8194 32.1738 34.8367 32.0871 34.8367 31.9996V29.3329C34.8367 29.2454 34.8194 29.1587 34.7857 29.0778C34.752 28.9969 34.7027 28.9234 34.6405 28.8615C34.5783 28.7996 34.5044 28.7505 34.4231 28.717C34.3419 28.6835 34.2547 28.6662 34.1668 28.6662H33.6594L34.0181 28.3092C34.0803 28.2473 34.1297 28.1738 34.1634 28.0929C34.197 28.012 34.2144 27.9253 34.2144 27.8378C34.2144 27.7503 34.197 27.6636 34.1634 27.5827C34.1297 27.5018 34.0803 27.4283 34.0181 27.3664L32.1233 25.4808C32.0611 25.4189 31.9872 25.3698 31.9059 25.3363C31.8247 25.3028 31.7375 25.2855 31.6496 25.2855C31.5616 25.2855 31.4745 25.3028 31.3932 25.3363C31.3119 25.3698 31.2381 25.4189 31.1758 25.4808L30.8171 25.8378V25.3329C30.8171 25.2454 30.7998 25.1587 30.7661 25.0778C30.7324 24.9969 30.6831 24.9234 30.6209 24.8615C30.5587 24.7996 30.4848 24.7505 30.4035 24.717C30.3222 24.6835 30.2351 24.6663 30.1471 24.6663H27.4674C27.3794 24.6663 27.2923 24.6835 27.211 24.717C27.1297 24.7505 27.0559 24.7996 26.9937 24.8615C26.9315 24.9234 26.8821 24.9969 26.8484 25.0778C26.8148 25.1587 26.7975 25.2454 26.7975 25.3329V25.8378L26.4387 25.4808C26.3765 25.4189 26.3026 25.3698 26.2214 25.3363C26.1401 25.3028 26.053 25.2856 25.965 25.2856C25.877 25.2856 25.7899 25.3028 25.7086 25.3363C25.6273 25.3698 25.5535 25.4189 25.4913 25.4808L23.5964 27.3664C23.5342 27.4283 23.4848 27.5018 23.4512 27.5827C23.4175 27.6636 23.4002 27.7503 23.4002 27.8378C23.4002 27.9253 23.4175 28.012 23.4512 28.0929C23.4848 28.1738 23.5342 28.2473 23.5964 28.3092L23.9552 28.6662H23.4478C23.3598 28.6662 23.2727 28.6835 23.1914 28.717C23.1101 28.7505 23.0363 28.7996 22.974 28.8615C22.9118 28.9234 22.8625 28.9969 22.8288 29.0778C22.7952 29.1587 22.7778 29.2454 22.7778 29.3329ZM24.1177 29.9996H25.0197C25.1582 29.9996 25.2934 29.9568 25.4065 29.8773C25.5196 29.7977 25.6051 29.6852 25.6513 29.5553C25.6903 29.445 25.7352 29.3368 25.7857 29.2313C25.8455 29.1068 25.8651 28.967 25.8417 28.8311C25.8183 28.6951 25.7531 28.5698 25.655 28.4722L25.0175 27.8378L25.965 26.895L26.6025 27.5294C26.7005 27.6269 26.8265 27.6918 26.9631 27.7151C27.0997 27.7384 27.2402 27.719 27.3653 27.6595C27.4713 27.6092 27.58 27.5645 27.6909 27.5257C27.8214 27.4797 27.9345 27.3946 28.0144 27.282C28.0944 27.1695 28.1373 27.035 28.1373 26.8972V25.9996H29.4772V26.8972C29.4772 27.035 29.5201 27.1695 29.6001 27.282C29.6801 27.3946 29.7931 27.4797 29.9237 27.5257C30.0345 27.5645 30.1432 27.6092 30.2493 27.6595C30.3743 27.719 30.5148 27.7384 30.6514 27.7151C30.7881 27.6918 30.914 27.6269 31.012 27.5294L31.6496 26.895L32.597 27.8378L31.9595 28.4722C31.8615 28.5698 31.7963 28.6951 31.7729 28.8311C31.7495 28.967 31.769 29.1068 31.8288 29.2313C31.8793 29.3368 31.9242 29.445 31.9632 29.5553C32.0094 29.6852 32.095 29.7977 32.2081 29.8773C32.3212 29.9568 32.4563 29.9996 32.5948 29.9996H33.4968V31.3329H32.5948C32.4563 31.3329 32.3212 31.3756 32.2081 31.4552C32.095 31.5348 32.0094 31.6473 31.9632 31.7772C31.9242 31.8875 31.8793 31.9956 31.8288 32.1012C31.769 32.2256 31.7495 32.3655 31.7729 32.5014C31.7963 32.6373 31.8615 32.7627 31.9595 32.8602L32.597 33.4946L31.6496 34.4375L31.012 33.8031C30.914 33.7055 30.7881 33.6406 30.6514 33.6174C30.5148 33.5941 30.3743 33.6135 30.2493 33.673C30.1432 33.7233 30.0345 33.7679 29.9237 33.8068C29.7931 33.8528 29.6801 33.9379 29.6001 34.0504C29.5201 34.163 29.4772 34.2974 29.4772 34.4353V35.3329H28.1373V34.4353C28.1373 34.2974 28.0944 34.163 28.0144 34.0504C27.9345 33.9379 27.8214 33.8528 27.6909 33.8068C27.58 33.7679 27.4713 33.7233 27.3653 33.673C27.2402 33.6135 27.0997 33.5941 26.9631 33.6174C26.8265 33.6407 26.7005 33.7055 26.6025 33.803L25.965 34.4374L25.0175 33.4946L25.655 32.8602C25.753 32.7627 25.8182 32.6373 25.8417 32.5014C25.8651 32.3655 25.8455 32.2256 25.7857 32.1012C25.7352 31.9956 25.6903 31.8875 25.6513 31.7772C25.6051 31.6473 25.5196 31.5348 25.4065 31.4552C25.2934 31.3756 25.1582 31.3329 25.0197 31.3329H24.1177V29.9996Z" fill="#9272C2"/>
<path d="M28.7881 32.6855C29.1857 32.6855 29.5742 32.5682 29.9048 32.3484C30.2353 32.1286 30.4929 31.8163 30.645 31.4508C30.7972 31.0853 30.837 30.6832 30.7594 30.2952C30.6818 29.9072 30.4904 29.5508 30.2093 29.2711C29.9282 28.9914 29.5701 28.8009 29.1802 28.7237C28.7903 28.6466 28.3862 28.6862 28.019 28.8375C27.6517 28.9889 27.3378 29.2453 27.1169 29.5742C26.8961 29.9031 26.7782 30.2898 26.7782 30.6854C26.7788 31.2157 26.9907 31.7241 27.3676 32.099C27.7444 32.474 28.2552 32.6849 28.7881 32.6855ZM28.7881 30.0186C28.9207 30.0186 29.0502 30.0577 29.1604 30.131C29.2706 30.2043 29.3564 30.3084 29.4072 30.4303C29.4579 30.5521 29.4711 30.6862 29.4453 30.8155C29.4194 30.9448 29.3556 31.0636 29.2619 31.1569C29.1682 31.2501 29.0488 31.3136 28.9188 31.3394C28.7888 31.3651 28.6541 31.3519 28.5317 31.3014C28.4092 31.2509 28.3046 31.1655 28.231 31.0558C28.1574 30.9462 28.1181 30.8173 28.1181 30.6854C28.1183 30.5086 28.1889 30.3391 28.3146 30.2141C28.4402 30.0891 28.6105 30.0188 28.7881 30.0186V30.0186Z" fill="#9272C2"/>
<path d="M28.8073 21.3335C26.9546 21.3303 25.1427 21.8744 23.601 22.8969C22.0593 23.9193 20.8573 25.3741 20.1472 27.0769L21.3839 27.5901C22.0895 25.9052 23.3529 24.511 24.9643 23.639C26.5757 22.7669 28.4384 22.4694 30.2431 22.7958C32.0479 23.1221 33.6862 24.0527 34.8864 25.4332C36.0865 26.8137 36.7761 28.561 36.841 30.3852L35.9803 29.5287L35.0329 30.4715L37.0427 32.4715C37.1049 32.5334 37.1788 32.5825 37.2601 32.616C37.3413 32.6495 37.4285 32.6668 37.5164 32.6668C37.6044 32.6668 37.6915 32.6495 37.7728 32.616C37.8541 32.5825 37.9279 32.5334 37.9901 32.4715L40 30.4715L39.0525 29.5287L38.1821 30.3949C38.1083 27.9687 37.0885 25.6662 35.3388 23.9749C33.589 22.2837 31.2466 21.3364 28.8073 21.3335Z" fill="#9272C2"/>
<path d="M19.4719 31.5658C19.667 33.5691 20.5076 35.4559 21.8682 36.945C23.2288 38.4341 25.0366 39.4457 27.0221 39.829C29.0076 40.2123 31.0644 39.9468 32.8858 39.072C34.7073 38.1972 36.1958 36.76 37.1295 34.9747L35.9414 34.3584C35.1505 35.8709 33.8948 37.0925 32.3573 37.845C30.8198 38.5975 29.081 38.8417 27.3943 38.5418C25.7077 38.242 24.1613 37.4139 22.9808 36.1782C21.8002 34.9425 21.0472 33.3638 20.8314 31.6724L21.6342 32.4713L22.5817 31.5285L20.5719 29.5285C20.4462 29.4035 20.2758 29.3333 20.0981 29.3333C19.9205 29.3333 19.7501 29.4035 19.6244 29.5285L17.6146 31.5285L18.562 32.4713L19.4719 31.5658Z" fill="#9272C2"/>
<path d="M11.3889 23.3333H3.34969C3.26171 23.3332 3.17459 23.3505 3.09331 23.384C3.01203 23.4175 2.93817 23.4666 2.87596 23.5285C2.81375 23.5904 2.76441 23.6639 2.73074 23.7448C2.69707 23.8257 2.67975 23.9124 2.67975 23.9999V29.3332C2.67975 29.4208 2.69707 29.5075 2.73074 29.5884C2.76441 29.6692 2.81375 29.7427 2.87596 29.8046C2.93817 29.8665 3.01203 29.9156 3.09331 29.9492C3.17459 29.9827 3.26171 29.9999 3.34969 29.9999H11.3889C11.4769 29.9999 11.564 29.9827 11.6453 29.9492C11.7266 29.9156 11.8004 29.8665 11.8627 29.8046C11.9249 29.7427 11.9742 29.6692 12.0079 29.5884C12.0415 29.5075 12.0589 29.4208 12.0589 29.3332V23.9999C12.0589 23.9124 12.0415 23.8257 12.0079 23.7448C11.9742 23.6639 11.9249 23.5904 11.8627 23.5285C11.8004 23.4666 11.7266 23.4175 11.6453 23.384C11.564 23.3505 11.4769 23.3332 11.3889 23.3333ZM10.719 28.6666H4.01962V24.6666H10.719V28.6666Z" fill="#9272C2"/>
<path d="M3.34969 3.99983C3.71968 3.99983 4.01962 3.70136 4.01962 3.33317C4.01962 2.96498 3.71968 2.6665 3.34969 2.6665C2.97969 2.6665 2.67975 2.96498 2.67975 3.33317C2.67975 3.70136 2.97969 3.99983 3.34969 3.99983Z" fill="#9272C2"/>
<path d="M6.02937 3.99983C6.39937 3.99983 6.69931 3.70136 6.69931 3.33317C6.69931 2.96498 6.39937 2.6665 6.02937 2.6665C5.65938 2.6665 5.35944 2.96498 5.35944 3.33317C5.35944 3.70136 5.65938 3.99983 6.02937 3.99983Z" fill="#9272C2"/>
<path d="M8.70918 3.99983C9.07918 3.99983 9.37912 3.70136 9.37912 3.33317C9.37912 2.96498 9.07918 2.6665 8.70918 2.6665C8.33919 2.6665 8.03925 2.96498 8.03925 3.33317C8.03925 3.70136 8.33919 3.99983 8.70918 3.99983Z" fill="#9272C2"/>
</svg>
