<svg width="40" height="40" viewBox="0 0 40 40" fill="none" xmlns="http://www.w3.org/2000/svg">
<path d="M12.6666 26H8.66664C8.29867 26 8 26.298 8 26.6666V30.6666C8 31.0353 8.29867 31.3333 8.66664 31.3333H12.6666C13.0346 31.3333 13.3333 31.0353 13.3333 30.6666V26.6666C13.3334 26.298 13.0347 26 12.6666 26ZM12 30H9.33336V27.3334H12V30Z" fill="#9272C2"/>
<path d="M22 16.6667H18C17.632 16.6667 17.3334 16.9647 17.3334 17.3334V21.3334C17.3334 21.7021 17.632 22 18 22H22C22.368 22 22.6667 21.7021 22.6667 21.3334V17.3334C22.6667 16.9648 22.368 16.6667 22 16.6667ZM21.3334 20.6668H18.6667V18.0001H21.3334V20.6668Z" fill="#9272C2"/>
<path d="M18 18.6667C13.5887 18.6667 10 22.2554 10 26.6668C10 27.0354 10.2987 27.3334 10.6666 27.3334C11.0346 27.3334 11.3333 27.0354 11.3333 26.6668C11.3333 22.9907 14.324 20.0001 17.9999 20.0001C18.3679 20.0001 18.6666 19.7021 18.6666 19.3335C18.6666 18.9648 18.368 18.6667 18 18.6667Z" fill="#9272C2"/>
<path d="M31.3334 26H27.3334C26.9654 26 26.6667 26.298 26.6667 26.6666V30.6666C26.6667 31.0353 26.9654 31.3333 27.3334 31.3333H31.3334C31.7014 31.3333 32 31.0353 32 30.6666V26.6666C32 26.298 31.7014 26 31.3334 26ZM30.6667 30H28V27.3334H30.6667V30Z" fill="#9272C2"/>
<path d="M22 18.6667C21.632 18.6667 21.3334 18.9647 21.3334 19.3334C21.3334 19.7021 21.632 20.0001 22 20.0001C25.676 20.0001 28.6667 22.9908 28.6667 26.6668C28.6667 27.0354 28.9653 27.3334 29.3333 27.3334C29.7013 27.3334 29.9999 27.0354 29.9999 26.6668C30 22.2554 26.4113 18.6667 22 18.6667Z" fill="#9272C2"/>
<path d="M18 18.6667H8.66664C8.29867 18.6667 8 18.9647 8 19.3334C8 19.7021 8.29867 20 8.66664 20H18C18.368 20 18.6666 19.7021 18.6666 19.3334C18.6666 18.9647 18.368 18.6667 18 18.6667Z" fill="#9272C2"/>
<path d="M31.3334 18.6667H22C21.632 18.6667 21.3334 18.9647 21.3334 19.3334C21.3334 19.7021 21.632 20.0001 22 20.0001H31.3334C31.7013 20.0001 32 19.7021 32 19.3335C32 18.9648 31.7013 18.6667 31.3334 18.6667Z" fill="#9272C2"/>
<path d="M37 0H3C1.34602 0 0 1.34602 0 3V37C0 38.654 1.34602 40 3 40H37C38.654 40 40 38.654 40 37V3C40 1.34602 38.654 0 37 0ZM38.6666 37C38.6666 37.9193 37.9193 38.6666 37 38.6666H3C2.08133 38.6666 1.33336 37.9193 1.33336 37V3C1.33336 2.08063 2.08133 1.33336 3 1.33336H37C37.9187 1.33336 38.6666 2.0807 38.6666 3V37Z" fill="#9272C2"/>
<path d="M6.00003 2.66675H3.33339C2.96542 2.66675 2.66675 2.96472 2.66675 3.33339V6.00011C2.66675 6.36878 2.96542 6.66675 3.33339 6.66675H6.00003C6.368 6.66675 6.66667 6.36878 6.66667 6.00011V3.33347C6.66667 2.9648 6.368 2.66675 6.00003 2.66675ZM5.33339 5.33347H4.00003V4.00011H5.33339V5.33347Z" fill="#9272C2"/>
<path d="M11.3334 2.66675H8.66676C8.29879 2.66675 8.00012 2.96472 8.00012 3.33339V6.00011C8.00012 6.36878 8.29879 6.66675 8.66676 6.66675H11.3334C11.7014 6.66675 12 6.36878 12 6.00011V3.33347C12 2.9648 11.7014 2.66675 11.3334 2.66675ZM10.6667 5.33347H9.33333V4.00011H10.6667V5.33347Z" fill="#9272C2"/>
<path d="M16.6667 2.66675H14C13.632 2.66675 13.3334 2.96472 13.3334 3.33339V6.00011C13.3334 6.36878 13.632 6.66675 14 6.66675H16.6667C17.0346 6.66675 17.3333 6.36878 17.3333 6.00011V3.33347C17.3334 2.9648 17.0347 2.66675 16.6667 2.66675ZM16 5.33347H14.6667V4.00011H16V5.33347Z" fill="#9272C2"/>
<path d="M37 0H3C1.34602 0 0 1.34602 0 3V8.66664C0 9.03531 0.298672 9.33328 0.666641 9.33328H39.3333C39.7013 9.33328 39.9999 9.03531 39.9999 8.66664V3C40 1.34602 38.654 0 37 0ZM38.6666 8H1.33336V3C1.33336 2.08063 2.08133 1.33336 3 1.33336H37C37.9187 1.33336 38.6666 2.0807 38.6666 3V8Z" fill="#9272C2"/>
<path d="M36.6667 10.6667H3.33339C2.96542 10.6667 2.66675 10.9647 2.66675 11.3334V36.6667C2.66675 37.0354 2.96542 37.3334 3.33339 37.3334H36.6667C37.0347 37.3334 37.3334 37.0354 37.3334 36.6667V11.3335C37.3334 10.9648 37.0347 10.6667 36.6667 10.6667ZM36 36.0001H4.00003V12.0001H36V36.0001Z" fill="#9272C2"/>
<path d="M8.66666 13.3335H6.00002C5.63205 13.3335 5.33337 13.6315 5.33337 14.0001V16.6668C5.33337 17.0354 5.63205 17.3334 6.00002 17.3334C6.36798 17.3334 6.66666 17.0354 6.66666 16.6668V14.6668H8.66666C9.03462 14.6668 9.3333 14.3688 9.3333 14.0001C9.3333 13.6315 9.0347 13.3335 8.66666 13.3335Z" fill="#9272C2"/>
<path d="M34 30.6665C33.6321 30.6665 33.3334 30.9645 33.3334 31.3331V33.3331H31.3334C30.9654 33.3331 30.6667 33.6311 30.6667 33.9998C30.6667 34.3685 30.9654 34.6664 31.3334 34.6664H34C34.368 34.6664 34.6667 34.3685 34.6667 33.9998V31.3331C34.6667 30.9646 34.368 30.6665 34 30.6665Z" fill="#9272C2"/>
<path d="M24.4714 27.5287L20.4714 23.5287C20.2114 23.2681 19.7887 23.2681 19.5287 23.5287L15.5287 27.5287C15.338 27.7194 15.2807 28.0061 15.384 28.2554C15.4873 28.5047 15.73 28.6667 16 28.6667C16.7294 28.6667 18 29.9374 18 30.6667C18 31.0354 18.2987 31.3333 18.6667 31.3333H21.3333C21.7013 31.3333 22 31.0354 22 30.6667C22 29.9374 23.2707 28.6667 24 28.6667C24.27 28.6667 24.5126 28.5047 24.616 28.2554C24.7193 28.0061 24.6621 27.7193 24.4714 27.5287ZM20.7814 30.0001H19.2187C18.9274 29.1094 18.12 28.1961 17.24 27.7034L20 24.9427L22.76 27.7033C21.88 28.1961 21.0727 29.1094 20.7814 30.0001Z" fill="#9272C2"/>
<path d="M21.3333 30.0002H18.6666C18.2987 30.0002 18 30.2982 18 30.6669V33.3335C18 33.7022 18.2987 34.0002 18.6666 34.0002H21.3333C21.7012 34.0002 21.9999 33.7022 21.9999 33.3335V30.6669C21.9999 30.2982 21.7012 30.0002 21.3333 30.0002ZM20.6666 32.6669H19.3332V31.3335H20.6666V32.6669Z" fill="#9272C2"/>
<path d="M20 23.3335C19.632 23.3335 19.3334 23.6315 19.3334 24.0001V26.6668C19.3334 27.0355 19.632 27.3334 20 27.3334C20.368 27.3334 20.6667 27.0355 20.6667 26.6668V24.0001C20.6667 23.6315 20.368 23.3335 20 23.3335Z" fill="#9272C2"/>
</svg>
