<svg width="39" height="40" viewBox="0 0 39 40" fill="none" xmlns="http://www.w3.org/2000/svg">
<circle cx="19.5" cy="20.1394" r="19" stroke="white"/>
<path d="M27.6667 20.4045V26.5662H24.095V20.8161C24.095 19.3728 23.5783 18.3878 22.285 18.3878C21.2983 18.3878 20.71 19.0511 20.4517 19.6945C20.3583 19.9245 20.3333 20.2445 20.3333 20.5645V26.5662H16.76C16.76 26.5662 16.8083 16.8294 16.76 15.8211H20.3333V17.3428L20.31 17.3778H20.3333V17.3444C20.8083 16.6111 21.655 15.5678 23.5533 15.5678C25.9033 15.5678 27.6667 17.1044 27.6667 20.4045ZM13.0217 10.6394C11.8 10.6394 11 11.4427 11 12.4961C11 13.5294 11.7767 14.3544 12.975 14.3544H12.9983C14.245 14.3544 15.02 13.5278 15.02 12.4961C14.9967 11.4427 14.245 10.6394 13.0217 10.6394ZM11.2117 26.5662H14.785V15.8211H11.2117V26.5662Z" fill="white"/>
</svg>
