<svg width="24" height="24" viewBox="0 0 24 24" fill="none" xmlns="http://www.w3.org/2000/svg">
<path d="M23.2408 21.7225L21.6004 16.8001H19.8004L20.8 21.6001H3.20083L4.20043 16.8001H2.40043L0.758833 21.7225C0.342433 22.9753 1.08043 24.0001 2.40043 24.0001H21.6004C22.9204 24.0001 23.6584 22.9753 23.2408 21.7225ZM18.0004 6.00006C18.0004 4.40876 17.3683 2.88264 16.2431 1.75742C15.1179 0.632202 13.5917 6.10352e-05 12.0004 6.10352e-05C10.4091 6.10352e-05 8.88301 0.632202 7.75779 1.75742C6.63257 2.88264 6.00043 4.40876 6.00043 6.00006C6.00043 11.7301 12.0004 18.0001 12.0004 18.0001C12.0004 18.0001 18.0004 11.7301 18.0004 6.00006ZM8.76043 6.07206C8.76043 4.28286 10.21 2.83326 12.0004 2.83326C12.8596 2.83326 13.6835 3.17455 14.291 3.78206C14.8985 4.38956 15.2398 5.21352 15.2398 6.07266C15.2398 6.9318 14.8985 7.75576 14.291 8.36326C13.6835 8.97077 12.8596 9.31206 12.0004 9.31206C11.1411 9.31206 10.317 8.97071 9.70941 8.36309C9.10179 7.75547 8.76043 6.93136 8.76043 6.07206Z" fill="white"/>
</svg>
