<svg width="25" height="25" viewBox="0 0 25 25" fill="none" xmlns="http://www.w3.org/2000/svg">
<path d="M22.1586 4.50876C22.0677 4.4994 21.9761 4.4994 21.8852 4.50876H3.21857C3.09893 4.51061 2.98009 4.52854 2.86523 4.5621L12.4986 14.1554L22.1586 4.50876Z" fill="white"/>
<path d="M23.1459 5.43547L13.4392 15.1021C13.1894 15.3505 12.8515 15.4899 12.4992 15.4899C12.147 15.4899 11.8091 15.3505 11.5592 15.1021L1.93924 5.5088C1.90967 5.6175 1.89399 5.7295 1.89258 5.84214V19.1755C1.89258 19.5291 2.03305 19.8682 2.2831 20.1183C2.53315 20.3683 2.87229 20.5088 3.22591 20.5088H21.8926C22.2462 20.5088 22.5853 20.3683 22.8354 20.1183C23.0854 19.8682 23.2259 19.5291 23.2259 19.1755V5.84214C23.2206 5.70324 23.1936 5.56603 23.1459 5.43547ZM4.13924 19.1755H3.21258V18.2221L8.05924 13.4155L8.99924 14.3555L4.13924 19.1755ZM21.8792 19.1755H20.9459L16.0859 14.3555L17.0259 13.4155L21.8726 18.2221L21.8792 19.1755Z" fill="white"/>
</svg>
