<svg width="25" height="20" viewBox="0 0 25 20" fill="none" xmlns="http://www.w3.org/2000/svg">
<path d="M21.3129 12.6247C21.1977 11.8243 20.5797 11.2003 19.7841 11.0143C16.6917 10.2895 15.9165 8.50871 15.7857 6.53351C15.2373 6.43151 14.2617 6.32111 12.6057 6.32111C10.9497 6.32111 9.97415 6.43151 9.42575 6.53351C9.29495 8.50871 8.51975 10.2895 5.42735 11.0143C4.63175 11.2015 4.01375 11.8243 3.89855 12.6247L3.30215 16.7551C3.09215 18.2095 4.16015 19.5211 5.64575 19.5211H19.5657C21.0501 19.5211 22.1193 18.2095 21.9093 16.7551L21.3129 12.6247ZM12.6057 16.5115C10.9317 16.5115 9.57455 15.1675 9.57455 13.5115C9.57455 11.8555 10.9317 10.5115 12.6057 10.5115C14.2797 10.5115 15.6369 11.8555 15.6369 13.5115C15.6369 15.1675 14.2785 16.5115 12.6057 16.5115ZM24.5457 5.12111C24.5169 3.32111 19.9353 0.322314 12.6057 0.321114C5.27495 0.322314 0.693347 3.32111 0.665747 5.12111C0.638147 6.92111 0.690947 9.26351 3.70775 8.87351C7.23695 8.41631 7.01975 7.18391 7.01975 5.42231C7.01975 4.19351 9.89015 3.89711 12.6057 3.89711C15.3213 3.89711 18.1905 4.19351 18.1917 5.42231C18.1917 7.18391 17.9745 8.41631 21.5037 8.87351C24.5193 9.26351 24.5733 6.92111 24.5457 5.12111Z" fill="white"/>
</svg>
