<svg width="648" height="408" viewBox="0 0 648 408" fill="none" xmlns="http://www.w3.org/2000/svg">
<g clip-path="url(#clip0)">
<path d="M242.477 170.553C242.477 170.553 295.608 173.113 298.809 191.677C302.009 210.241 236.716 193.597 236.716 193.597L242.477 170.553Z" fill="#A0616A"/>
<path d="M158.62 111.66C158.62 111.66 167.582 114.221 174.623 129.584C181.665 144.947 195.748 159.03 195.748 159.03L252.719 169.912L243.117 198.718L188.706 191.676L154.779 172.472L158.62 111.66Z" fill="#575A89"/>
<path opacity="0.1" d="M158.62 111.66C158.62 111.66 167.582 114.221 174.623 129.584C181.665 144.947 195.748 159.03 195.748 159.03L252.719 169.912L243.117 198.718L188.706 191.676L154.779 172.472L158.62 111.66Z" fill="#9D86DE"/>
<path d="M594.869 59.4899H527.655V60.7701H594.869V59.4899Z" fill="#9D86DE"/>
<path d="M475.165 59.4899H262.001V60.7701H475.165V59.4899Z" fill="#9D86DE"/>
<path d="M524.455 213.761H19.3916V406.441H524.455V213.761Z" fill="#9D86DE"/>
<path d="M74.1221 82.2143L79.8832 118.702L119.571 120.622L115.09 66.8512L74.1221 82.2143Z" fill="#A0616A"/>
<path d="M32.1938 325.784L30.2734 406.441H90.4457L99.4076 374.434L106.449 406.441H169.182C169.182 406.441 170.462 314.262 163.421 313.622C156.379 312.982 32.1938 325.784 32.1938 325.784Z" fill="#2F2E41"/>
<path d="M86.9255 91.8164C106.016 91.8164 121.493 76.3402 121.493 57.2494C121.493 38.1585 106.016 22.6823 86.9255 22.6823C67.8346 22.6823 52.3584 38.1585 52.3584 57.2494C52.3584 76.3402 67.8346 91.8164 86.9255 91.8164Z" fill="#A0616A"/>
<path d="M28.6733 329.305L46.597 240.967L22.9121 123.823L77.4604 103.354L104.209 100.138L117.656 97.6281L127.253 100.138C127.253 100.138 165.661 109.74 167.582 116.782C169.502 123.823 159.9 181.435 159.9 181.435L150.938 228.805L170.782 313.942C170.782 313.942 88.2055 342.108 29.9535 329.305H28.6733Z" fill="#575A89"/>
<path opacity="0.1" d="M52.6777 156.149V179.834L128.208 179.937L56.5185 172.153L52.6777 156.149Z" fill="#9D86DE"/>
<path opacity="0.1" d="M46.1914 221.562L141.017 208L46.1914 234.857V221.562Z" fill="#9D86DE"/>
<path opacity="0.1" d="M196.708 159.35L186.542 195.982L203.749 160.559L196.708 159.35Z" fill="#9D86DE"/>
<path d="M115.373 22.5824L121.73 20.0376C121.73 20.0376 108.439 5.40499 89.9472 6.67745L95.1482 0.951605C95.1482 0.951605 82.4351 -4.13793 70.8777 9.22217C64.8023 16.2453 57.7729 24.5006 53.3908 33.8001H46.5834L49.4245 40.056L39.4805 46.312L49.6871 45.1883C49.0789 48.6141 48.9855 52.1115 49.4101 55.5649C49.848 59.0193 51.6108 62.1685 54.3265 64.3478C54.3265 64.3478 62.2098 48.0302 62.2098 45.4854V51.8474C62.2098 51.8474 68.5664 46.1217 68.5664 42.3045L72.0335 46.7579L73.7671 39.7597L95.1482 46.7579L91.681 41.0321L104.972 42.9407L99.771 35.9425C99.771 35.9425 114.795 44.2131 115.373 51.2113C115.951 58.2094 120.349 64.8406 120.349 64.8406C120.349 64.8406 132.132 32.1253 115.373 22.5824Z" fill="#2F2E41"/>
<path d="M395.148 150.389H149.338V407.081H395.148V150.389Z" fill="#D0CDE1"/>
<path d="M356.74 206.72H174.943V232.325H356.74V206.72Z" fill="#9D86DE"/>
<path d="M325.257 274.574H206.196V287.377H325.257V274.574Z" fill="#9D86DE"/>
<path d="M325.488 296.978H206.427V309.781H325.488V296.978Z" fill="#9D86DE"/>
<path d="M266.187 319.383H206.656V332.185H266.187V319.383Z" fill="#9D86DE"/>
<path d="M359.941 384.036H332.415V396.839H359.941V384.036Z" fill="#9D86DE"/>
<path d="M131.734 182.715C131.734 182.715 187.426 174.394 195.747 186.556C204.069 198.719 136.855 205.12 136.855 205.12L131.734 182.715Z" fill="#A0616A"/>
<path d="M29.3135 123.183H25.3026C23.6529 123.178 22.0624 123.797 20.8499 124.916C17.0425 128.451 8.99179 137.574 5.62871 153.909C1.14779 175.674 -6.53378 217.922 10.7498 221.123C28.0333 224.323 141.336 208.96 141.336 208.96L133.015 179.514L51.078 180.154C51.078 180.154 52.3583 166.072 49.7977 157.11C47.2372 148.148 29.3135 123.183 29.3135 123.183Z" fill="#575A89"/>
<path d="M262.001 86.3753C276.496 86.3753 288.247 74.6248 288.247 60.1299C288.247 45.635 276.496 33.8845 262.001 33.8845C247.506 33.8845 235.756 45.635 235.756 60.1299C235.756 74.6248 247.506 86.3753 262.001 86.3753Z" fill="#D0CDE1"/>
<path d="M381.705 86.3753C396.2 86.3753 407.951 74.6248 407.951 60.1299C407.951 45.635 396.2 33.8845 381.705 33.8845C367.21 33.8845 355.46 45.635 355.46 60.1299C355.46 74.6248 367.21 86.3753 381.705 86.3753Z" fill="#9D86DE"/>
<path d="M501.41 87.0156C496.092 87.0156 490.894 85.4388 486.473 82.4845C482.052 79.5303 478.606 75.3314 476.571 70.4187C474.536 65.506 474.004 60.1003 475.041 54.885C476.078 49.6697 478.639 44.8792 482.399 41.1192C486.159 37.3592 490.95 34.7986 496.165 33.7612C501.38 32.7238 506.786 33.2562 511.699 35.2911C516.611 37.326 520.81 40.772 523.764 45.1933C526.719 49.6146 528.295 54.8126 528.295 60.1301C528.287 67.2581 525.452 74.0918 520.412 79.1321C515.372 84.1724 508.538 87.0075 501.41 87.0156ZM501.41 34.5248C496.346 34.5248 491.395 36.0266 487.184 38.8401C482.974 41.6536 479.692 45.6526 477.754 50.3314C475.816 55.0101 475.309 60.1585 476.297 65.1254C477.285 70.0923 479.723 74.6548 483.304 78.2357C486.885 81.8167 491.448 84.2553 496.415 85.2433C501.382 86.2313 506.53 85.7242 511.209 83.7862C515.887 81.8482 519.886 78.5663 522.7 74.3556C525.513 70.1448 527.015 65.1943 527.015 60.1301C527.007 53.3415 524.307 46.8332 519.507 42.033C514.707 37.2327 508.198 34.5326 501.41 34.5248Z" fill="#9D86DE"/>
<path d="M621.114 87.0156C615.797 87.0156 610.599 85.4388 606.177 82.4845C601.756 79.5303 598.31 75.3314 596.275 70.4187C594.24 65.506 593.708 60.1003 594.745 54.885C595.783 49.6697 598.343 44.8792 602.103 41.1192C605.863 37.3592 610.654 34.7986 615.869 33.7612C621.084 32.7238 626.49 33.2562 631.403 35.2911C636.315 37.326 640.514 40.772 643.468 45.1933C646.423 49.6146 647.999 54.8126 647.999 60.1301C647.991 67.2581 645.156 74.0918 640.116 79.1321C635.076 84.1724 628.242 87.0075 621.114 87.0156ZM621.114 34.5248C616.05 34.5248 611.099 36.0266 606.888 38.8401C602.678 41.6536 599.396 45.6526 597.458 50.3314C595.52 55.0101 595.013 60.1585 596.001 65.1254C596.989 70.0923 599.427 74.6548 603.008 78.2357C606.589 81.8167 611.152 84.2553 616.119 85.2433C621.086 86.2313 626.234 85.7242 630.913 83.7862C635.591 81.8482 639.59 78.5663 642.404 74.3556C645.217 70.1448 646.719 65.1943 646.719 60.1301C646.712 53.3415 644.011 46.8332 639.211 42.033C634.411 37.2327 627.903 34.5326 621.114 34.5248Z" fill="#9D86DE"/>
<path d="M258.383 71.296L247.009 56.132L251.106 53.0587L258.936 63.4993L294.937 27.4996L298.557 31.1202L258.383 71.296Z" fill="#9D86DE"/>
<path d="M533.287 405.734H10.5596V407.515H533.287V405.734Z" fill="#9D86DE"/>
</g>
<defs>
<clipPath id="clip0">
<rect width="648" height="407.515" fill="white"/>
</clipPath>
</defs>
</svg>
