<svg width="39" height="40" viewBox="0 0 39 40" fill="none" xmlns="http://www.w3.org/2000/svg">
<circle cx="19.5" cy="20.1394" r="19" stroke="white"/>
<path d="M27.6667 15.2178C27.0533 15.4844 26.395 15.6678 25.7033 15.7478C26.41 15.3311 26.95 14.6711 27.2067 13.8861C26.5333 14.2785 25.7985 14.5546 25.0333 14.7028C24.7115 14.3654 24.3242 14.0971 23.8953 13.9143C23.4663 13.7315 23.0046 13.6379 22.5383 13.6394C20.65 13.6394 19.12 15.1478 19.12 17.0061C19.12 17.2694 19.15 17.5261 19.2083 17.7728C17.8539 17.7084 16.5277 17.3625 15.3144 16.757C14.1011 16.1515 13.0274 15.2998 12.1617 14.2561C11.8576 14.7679 11.6975 15.3524 11.6983 15.9478C11.6983 17.1144 12.3033 18.1478 13.22 18.7494C12.6774 18.7324 12.1464 18.588 11.67 18.3278V18.3694C11.6751 19.1519 11.9513 19.9083 12.4515 20.51C12.9517 21.1117 13.645 21.5214 14.4133 21.6694C13.9089 21.8028 13.3812 21.8222 12.8683 21.7261C13.0919 22.3992 13.5195 22.986 14.0917 23.4051C14.664 23.8241 15.3525 24.0545 16.0617 24.0644C14.8449 25.002 13.3511 25.5086 11.815 25.5044C11.54 25.5044 11.2683 25.4878 11 25.4578C12.5675 26.4499 14.3849 26.9754 16.24 26.9728C22.53 26.9728 25.9683 21.8428 25.9683 17.3928L25.9567 16.9561C26.6271 16.4849 27.2065 15.8959 27.6667 15.2178V15.2178Z" fill="white"/>
</svg>
