<svg width="40" height="40" viewBox="0 0 40 40" fill="none" xmlns="http://www.w3.org/2000/svg">
<path d="M15.7819 28.0311C15.6308 28.0311 15.4786 27.9792 15.3545 27.8734L11.0812 24.2347C10.9338 24.109 10.849 23.9255 10.849 23.7317C10.849 23.5382 10.9341 23.3547 11.0812 23.229L15.3545 19.5903C15.6319 19.3537 16.0487 19.3872 16.2853 19.6647C16.5215 19.9426 16.4884 20.3594 16.2105 20.5956L12.5279 23.7317L16.2105 26.8677C16.4884 27.1043 16.5215 27.5211 16.2853 27.7986C16.1545 27.9523 15.9688 28.0311 15.7819 28.0311Z" fill="#9272C2"/>
<path d="M24.218 28.0311C24.0311 28.0311 23.8454 27.9523 23.7149 27.7986C23.4783 27.5211 23.5119 27.1043 23.7894 26.8677L27.4719 23.7317L23.7894 20.5956C23.5119 20.3594 23.4783 19.9426 23.7149 19.6647C23.9512 19.3872 24.3683 19.3537 24.6454 19.5903L28.9187 23.229C29.0661 23.3547 29.1509 23.5382 29.1509 23.7317C29.1509 23.9255 29.0661 24.109 28.9187 24.2347L24.6454 27.8734C24.5212 27.9792 24.369 28.0311 24.218 28.0311Z" fill="#9272C2"/>
<path d="M18.4872 30.7606C18.4419 30.7606 18.3962 30.7558 18.3501 30.7462C17.9934 30.671 17.7649 30.3206 17.8401 29.9638L20.5034 17.319C20.5785 16.9623 20.9286 16.7338 21.2857 16.809C21.6424 16.8842 21.8709 17.2343 21.7957 17.5913L19.1325 30.2362C19.0669 30.5472 18.7927 30.7606 18.4872 30.7606Z" fill="#9272C2"/>
<path d="M35.566 37.6495H4.43396C1.98924 37.6495 0 35.6607 0 33.2156V6.79236C0 4.34764 1.98924 2.3584 4.43396 2.3584H35.566C38.0108 2.3584 40 4.34764 40 6.79236V33.2156C40 35.6607 38.0108 37.6495 35.566 37.6495ZM4.43396 3.67915C2.71742 3.67915 1.32075 5.07582 1.32075 6.79236V33.2156C1.32075 34.9321 2.71742 36.3288 4.43396 36.3288H35.566C37.2826 36.3288 38.6792 34.9321 38.6792 33.2156V6.79236C38.6792 5.07582 37.2826 3.67915 35.566 3.67915H4.43396Z" fill="#9272C2"/>
<path d="M39.3396 12.9342H0.660377C0.295548 12.9342 0 12.6384 0 12.2732C0 11.9085 0.295548 11.6123 0.660377 11.6123H39.3396C39.7045 11.6123 40 11.9085 40 12.2732C40 12.6384 39.7045 12.9342 39.3396 12.9342Z" fill="#9272C2"/>
<path d="M11.2832 9.77319C10.1312 9.77319 9.19336 8.83533 9.19336 7.68335C9.19336 6.53101 10.1312 5.59351 11.2832 5.59351C12.4355 5.59351 13.373 6.53101 13.373 7.68335C13.373 8.83533 12.4355 9.77319 11.2832 9.77319ZM11.2832 6.91426C10.8594 6.91426 10.5141 7.25919 10.5141 7.68335C10.5141 8.10751 10.8594 8.45244 11.2832 8.45244C11.7074 8.45244 12.0523 8.10751 12.0523 7.68335C12.0523 7.25919 11.7074 6.91426 11.2832 6.91426Z" fill="#9272C2"/>
<path d="M4.86218 9.75268C3.70984 9.75268 2.77234 8.81518 2.77234 7.66284C2.77234 6.5105 3.70984 5.573 4.86218 5.573C6.01453 5.573 6.95203 6.5105 6.95203 7.66284C6.95203 8.81518 6.01453 9.75268 4.86218 9.75268ZM4.86218 6.89375C4.43839 6.89375 4.09309 7.23905 4.09309 7.66284C4.09309 8.087 4.43839 8.43193 4.86218 8.43193C5.28634 8.43193 5.63127 8.087 5.63127 7.66284C5.63127 7.23905 5.28634 6.89375 4.86218 6.89375Z" fill="#9272C2"/>
<path d="M17.7041 9.79284C16.5521 9.79284 15.6146 8.85534 15.6146 7.703C15.6146 6.55103 16.5521 5.61353 17.7041 5.61353C18.8564 5.61353 19.7939 6.55103 19.7939 7.703C19.7939 8.85534 18.8564 9.79284 17.7041 9.79284ZM17.7041 6.93391C17.2803 6.93391 16.9354 7.27884 16.9354 7.703C16.9354 8.12716 17.2803 8.47209 17.7041 8.47209C18.1283 8.47209 18.4732 8.12716 18.4732 7.703C18.4732 7.27884 18.1283 6.93391 17.7041 6.93391Z" fill="#9272C2"/>
</svg>
